# xmcd
#
# Track frame offsets:
#	150
#	17087
#	49435
#	79253
#	104393
#	132180
#	165493
#	186628
#	208337
#	227537
#	262500
#	268706
#	289863
#
# Disc length: 4670 seconds
#
# Revision: 1
# Processed by: cddbd v1.5.2PL0 Copyright (c) Steve Scherf et al.
# Submitted via: audiograbber 1.83.01
#
DISCID=ba123c0d
DTITLE=Grateful Dead - 74-07-29 Capital Centre, Landover MD
DYEAR=1900
DGENRE=
TTITLE0=Promised Land
TTITLE1=Sugaree
TTITLE2=Black Throated Wind
TTITLE3=It Must Have Been The Roses
TTITLE4=Cumberland Blues
TTITLE5=Scarlet Begonias
TTITLE6=Jack Straw
TTITLE7=Deal
TTITLE8=El Paso
TTITLE9=To Lay Me Down
TTITLE10=WRS Prelude
TTITLE11=WRS Part 1
TTITLE12=Let It Grow
EXTD=
EXTT0=
EXTT1=
EXTT2=
EXTT3=
EXTT4=
EXTT5=
EXTT6=
EXTT7=
EXTT8=
EXTT9=
EXTT10=
EXTT11=
EXTT12=
PLAYORDER=
